<?xml version="1.0" encoding="UTF-8"?>
<svg version="1.1" xmlns="http://www.w3.org/2000/svg" width="191" height="105">
<path d="M0 0 C12.87 0 25.74 0 39 0 C43.75 9.1875 43.75 9.1875 45.22167969 12.05541992 C48.63509796 18.59687915 51.55585256 23.19960536 58 27 C58.495 27.680625 58.99 28.36125 59.5 29.0625 C61.38853365 31.50185597 63.11272126 32.03757375 66 33 C66.66 33.33 67.32 33.66 68 34 C68 34.66 68 35.32 68 36 C66.35 36 64.7 36 63 36 C63.226875 37.216875 63.45375 38.43375 63.6875 39.6875 C64.08103694 42.81916717 64.05254605 43.87914408 62.75 46.875 C61 49 61 49 58 51 C55.3125 51.125 55.3125 51.125 53 51 C53.226875 52.03125 53.45375 53.0625 53.6875 54.125 C54.05571492 58.69086504 53.65717397 60.29606053 51 64 C48.94322137 65.46565721 46.86588204 66.72114484 44.64453125 67.921875 C44.10183594 68.27765625 43.55914062 68.6334375 43 69 C43 69.66 43 70.32 43 71 C40.13275314 70.42655063 39.1385485 70.1385485 37 68 C34.370346 67.91307396 31.83422012 67.94100587 29.2109375 68.04296875 C27.61332759 68.06653577 26.01566297 68.08660399 24.41796875 68.10351562 C21.90022908 68.13608316 19.3900859 68.18683276 16.87451172 68.2980957 C5.7499874 68.75841327 5.7499874 68.75841327 1 67 C-2.91238103 63.19606073 -4.79418935 58.93265978 -7 54 C-8.11915828 52.28125915 -9.27283061 50.58421068 -10.46875 48.91796875 C-18.20349887 37.19629849 -18.20349887 37.19629849 -17.86181641 31.82958984 C-16.57908875 27.41882557 -14.08384578 23.80696513 -11.43603516 20.10058594 C-9.37612695 17.08741861 -7.68092393 13.90501559 -5.95581055 10.69189453 C-4.0151353 7.1034516 -2.00007017 3.5556803 0 0 Z M11 16 C10.67 16.66 10.34 17.32 10 18 C10.66 18 11.32 18 12 18 C11.67 17.34 11.34 16.68 11 16 Z M6.4375 29.125 C2.50100253 33.7680483 1.78715005 37.29294971 2.25 43.25 C2.59039803 47.08186308 2.59039803 47.08186308 5 50 C5.99 49.34 6.98 48.68 8 48 C8.17416581 45.59687336 8.17416581 45.59687336 7.875 42.875 C7.68559492 37.5365827 8.78545704 34.75391643 12.00390625 30.55859375 C12.33261719 30.04425781 12.66132812 29.52992187 13 29 C12.67 28.34 12.34 27.68 12 27 C8.8300509 26.68083207 8.8300509 26.68083207 6.4375 29.125 Z M29 43 C29 43.66 29 44.32 29 45 C29.66 45 30.32 45 31 45 C31 44.34 31 43.68 31 43 C30.34 43 29.68 43 29 43 Z M5 52 C4.26656572 55.06556598 4.26656572 55.06556598 4 58 C6.64 58 9.28 58 12 58 C11.43260132 53.87026372 11.43260132 53.87026372 10 50 C7.67642489 49.81509993 7.67642489 49.81509993 5 52 Z M14 54 C14.33 55.32 14.66 56.64 15 58 C20.61 58 26.22 58 32 58 C32 56.68 32 55.36 32 54 C26.06 54 20.12 54 14 54 Z M4 60 C4 61.32 4 62.64 4 64 C12.58 64 21.16 64 30 64 C29.34 62.68 28.68 61.36 28 60 C20.08 60 12.16 60 4 60 Z " fill="#6DADC2" transform="translate(48,26)"/>
<path d="M0 0 C12.87 0 25.74 0 39 0 C43.8125 9.1875 43.8125 9.1875 45.31176758 12.05541992 C45.71032959 12.81443604 46.1088916 13.57345215 46.51953125 14.35546875 C46.94572754 15.16806152 47.37192383 15.9806543 47.81103516 16.81787109 C48.76194908 18.56310079 49.80960977 20.25548181 50.88671875 21.92578125 C51.43779297 22.95251953 51.43779297 22.95251953 52 24 C51.505 25.485 51.505 25.485 51 27 C46.18250674 19.08033305 41.60176043 11.05308075 37 3 C25.45 3 13.9 3 2 3 C-1.06329966 8.54655569 -1.06329966 8.54655569 -4.125 14.09399414 C-6.93438094 19.15911043 -9.84916309 24.11931088 -13.0390625 28.95703125 C-14.26159169 31.55614818 -14.24646811 33.13519497 -14 36 C-12.86213853 38.72291935 -12.86213853 38.72291935 -11.2265625 41.44921875 C-10.3603125 42.96805664 -10.3603125 42.96805664 -9.4765625 44.51757812 C-8.86554687 45.56365234 -8.25453125 46.60972656 -7.625 47.6875 C-7.02171875 48.74517578 -6.4184375 49.80285156 -5.796875 50.89257812 C-2.83786483 56.27335507 -2.83786483 56.27335507 1 61 C1.82634316 54.72425867 2.31936928 50.00307344 0 44 C-0.66394468 38.02449792 0.74378611 33.91543116 4 29 C4.928125 28.0925 5.85625 27.185 6.8125 26.25 C7.534375 25.5075 8.25625 24.765 9 24 C8.93391003 21.81656815 8.93391003 21.81656815 8 20 C8 18.33333333 8 16.66666667 8 15 C12.08812856 13.83196327 14.23504247 14.02455932 18 16 C19.73828125 18.1796875 19.73828125 18.1796875 21.3125 20.875 C24.44719266 26.12474902 27.84104887 31.10602197 31.3984375 36.078125 C33.23516299 39.42902907 33.67070901 42.21785779 34 46 C31.9375 47.3125 31.9375 47.3125 29 48 C23.04520476 44.9123284 20.04660137 40.60165203 16.48046875 35.01171875 C15.99191406 34.34785156 15.50335938 33.68398438 15 33 C12.86455501 32.76896376 12.86455501 32.76896376 11.375 34.5625 C9.47396381 37.9325187 9.60431998 40.17509312 10 44 C11.41623241 47.25058324 11.41623241 47.25058324 13 50 C13 50.66 13 51.32 13 52 C16.23071384 51.97709987 19.45793134 51.89966483 22.6875 51.8125 C23.59951172 51.80669922 24.51152344 51.80089844 25.45117188 51.79492188 C31.20980226 51.63131139 31.20980226 51.63131139 35.9375 48.46875 C36.618125 47.6540625 37.29875 46.839375 38 46 C41.3125 45.6875 41.3125 45.6875 44 46 C44.28875 46.804375 44.5775 47.60875 44.875 48.4375 C45.73262568 51.1326468 45.73262568 51.1326468 48 52 C47.6390625 51.34773438 47.278125 50.69546875 46.90625 50.0234375 C41.92183288 40.6361186 41.92183288 40.6361186 43 36 C45.1875 33.125 45.1875 33.125 48 31 C50.8125 30.6875 50.8125 30.6875 53 31 C53.33 30.34 53.66 29.68 54 29 C55.125 32.75 55.125 32.75 54 35 C55.32 35.66 56.64 36.32 58 37 C56.91257943 34.15597697 55.73992413 31.50874558 54.3125 28.8125 C53.879375 27.884375 53.44625 26.95625 53 26 C53.33 25.34 53.66 24.68 54 24 C54.7425 24.78375 55.485 25.5675 56.25 26.375 C58.62394516 28.64103856 60.08760056 29.72582524 63 31 C65.75 32.5 65.75 32.5 68 34 C68 34.66 68 35.32 68 36 C66.35 36 64.7 36 63 36 C63.226875 37.216875 63.45375 38.43375 63.6875 39.6875 C64.08103694 42.81916717 64.05254605 43.87914408 62.75 46.875 C61 49 61 49 58 51 C55.3125 51.125 55.3125 51.125 53 51 C53.226875 52.03125 53.45375 53.0625 53.6875 54.125 C54.05571492 58.69086504 53.65717397 60.29606053 51 64 C48.94322137 65.46565721 46.86588204 66.72114484 44.64453125 67.921875 C44.10183594 68.27765625 43.55914062 68.6334375 43 69 C43 69.66 43 70.32 43 71 C40.13275314 70.42655063 39.1385485 70.1385485 37 68 C34.370346 67.91307396 31.83422012 67.94100587 29.2109375 68.04296875 C27.61332759 68.06653577 26.01566297 68.08660399 24.41796875 68.10351562 C21.90022908 68.13608316 19.3900859 68.18683276 16.87451172 68.2980957 C5.7499874 68.75841327 5.7499874 68.75841327 1 67 C-2.91238103 63.19606073 -4.79418935 58.93265978 -7 54 C-8.11915828 52.28125915 -9.27283061 50.58421068 -10.46875 48.91796875 C-18.20349887 37.19629849 -18.20349887 37.19629849 -17.86181641 31.82958984 C-16.57908875 27.41882557 -14.08384578 23.80696513 -11.43603516 20.10058594 C-9.37612695 17.08741861 -7.68092393 13.90501559 -5.95581055 10.69189453 C-4.0151353 7.1034516 -2.00007017 3.5556803 0 0 Z M11 16 C10.67 16.66 10.34 17.32 10 18 C10.66 18 11.32 18 12 18 C11.67 17.34 11.34 16.68 11 16 Z M6.4375 29.125 C2.50100253 33.7680483 1.78715005 37.29294971 2.25 43.25 C2.59039803 47.08186308 2.59039803 47.08186308 5 50 C5.99 49.34 6.98 48.68 8 48 C8.17416581 45.59687336 8.17416581 45.59687336 7.875 42.875 C7.68559492 37.5365827 8.78545704 34.75391643 12.00390625 30.55859375 C12.33261719 30.04425781 12.66132812 29.52992187 13 29 C12.67 28.34 12.34 27.68 12 27 C8.8300509 26.68083207 8.8300509 26.68083207 6.4375 29.125 Z M29 43 C29 43.66 29 44.32 29 45 C29.66 45 30.32 45 31 45 C31 44.34 31 43.68 31 43 C30.34 43 29.68 43 29 43 Z M5 52 C4.26656572 55.06556598 4.26656572 55.06556598 4 58 C6.64 58 9.28 58 12 58 C11.43260132 53.87026372 11.43260132 53.87026372 10 50 C7.67642489 49.81509993 7.67642489 49.81509993 5 52 Z M14 54 C14.33 55.32 14.66 56.64 15 58 C20.61 58 26.22 58 32 58 C32 56.68 32 55.36 32 54 C26.06 54 20.12 54 14 54 Z M4 60 C4 61.32 4 62.64 4 64 C12.58 64 21.16 64 30 64 C29.34 62.68 28.68 61.36 28 60 C20.08 60 12.16 60 4 60 Z " fill="#C7EBF3" transform="translate(48,26)"/>
<path d="M0 0 C0.9075 -0.020625 1.815 -0.04125 2.75 -0.0625 C7.7124033 -0.0915199 11.26806406 -0.07627581 15.25 3.25 C17.76855199 7.37126689 17.33846982 10.64493538 16.25 15.25 C15.693125 15.930625 15.13625 16.61125 14.5625 17.3125 C14.129375 17.951875 13.69625 18.59125 13.25 19.25 C14.20931238 23.83338137 16.47159801 28.06131252 18.4453125 32.296875 C19.25 34.25 19.25 34.25 19.25 36.25 C16.9296875 36.15625 16.9296875 36.15625 14.25 35.25 C12.49970138 31.97808499 11.33562301 28.64153645 10.0703125 25.15625 C9.46960938 24.1971875 8.86890625 23.238125 8.25 22.25 C5.94 21.92 3.63 21.59 1.25 21.25 C1.25 26.2 1.25 31.15 1.25 36.25 C-0.544375 36.105625 -2.33875 35.96125 -4.1875 35.8125 C-5.19683594 35.73128906 -6.20617187 35.65007812 -7.24609375 35.56640625 C-9.75 35.25 -9.75 35.25 -10.75 34.25 C-10.85082764 31.81339554 -10.88972603 29.40575299 -10.8828125 26.96875 C-10.88376923 26.24006714 -10.88472595 25.51138428 -10.88571167 24.76062012 C-10.88639335 23.2172029 -10.88453988 21.67378283 -10.88037109 20.13037109 C-10.87502262 17.760026 -10.88031642 15.38987041 -10.88671875 13.01953125 C-10.88605797 11.52343708 -10.8847768 10.02734303 -10.8828125 8.53125 C-10.88483673 7.81771362 -10.88686096 7.10417725 -10.88894653 6.36901855 C-10.85022536 -1.70626399 -7.02312766 0.03923535 0 0 Z M1.25 4.25 C1.25 8.54 1.25 12.83 1.25 17.25 C6.42446776 17.65914759 6.42446776 17.65914759 11.25 16.25 C12.93477849 12.88044301 12.54650704 9.9859887 12.25 6.25 C10.46342243 4.03629949 10.46342243 4.03629949 8.0859375 4.0546875 C4.66796875 4.15234375 4.66796875 4.15234375 1.25 4.25 Z " fill="#E2F1F3" transform="translate(134.75,56.75)"/>
<path d="M0 0 C0.63679688 0.07863281 1.27359375 0.15726563 1.9296875 0.23828125 C4.92897823 1.34179388 5.64370381 3.08725476 7.25 5.8125 C10.41252298 11.07652635 13.82561802 16.08445454 17.3984375 21.078125 C19.23516299 24.42902907 19.67070901 27.21785779 20 31 C17.9375 32.3125 17.9375 32.3125 15 33 C9.04520476 29.9123284 6.04660137 25.60165203 2.48046875 20.01171875 C1.99191406 19.34785156 1.50335938 18.68398438 1 18 C-1.13544499 17.76896376 -1.13544499 17.76896376 -2.625 19.5625 C-4.52603619 22.9325187 -4.39568002 25.17509312 -4 29 C-2.58376759 32.25058324 -2.58376759 32.25058324 -1 35 C-1 35.66 -1 36.32 -1 37 C9.395 36.505 9.395 36.505 20 36 C20 39.33333333 20 42.66666667 20 46 C5.15 45.505 5.15 45.505 -10 45 C-10 46.65 -10 48.3 -10 50 C-10.99 50 -11.98 50 -13 50 C-13.33 48.68 -13.66 47.36 -14 46 C-13.67 46 -13.34 46 -13 46 C-12.17365684 39.72425867 -11.68063072 35.00307344 -14 29 C-14.66394468 23.02449792 -13.25621389 18.91543116 -10 14 C-9.071875 13.0925 -8.14375 12.185 -7.1875 11.25 C-6.465625 10.5075 -5.74375 9.765 -5 9 C-5.06608997 6.81656815 -5.06608997 6.81656815 -6 5 C-6 3.33333333 -6 1.66666667 -6 0 C-3.45555769 -1.27222115 -2.67379418 -0.78641005 0 0 Z M-3 1 C-3.33 1.66 -3.66 2.32 -4 3 C-3.34 3 -2.68 3 -2 3 C-2.33 2.34 -2.66 1.68 -3 1 Z M-7.5625 14.125 C-11.49899747 18.7680483 -12.21284995 22.29294971 -11.75 28.25 C-11.40960197 32.08186308 -11.40960197 32.08186308 -9 35 C-8.01 34.34 -7.02 33.68 -6 33 C-5.82583419 30.59687336 -5.82583419 30.59687336 -6.125 27.875 C-6.31440508 22.5365827 -5.21454296 19.75391643 -1.99609375 15.55859375 C-1.66738281 15.04425781 -1.33867188 14.52992187 -1 14 C-1.33 13.34 -1.66 12.68 -2 12 C-5.1699491 11.68083207 -5.1699491 11.68083207 -7.5625 14.125 Z M15 28 C15 28.66 15 29.32 15 30 C15.66 30 16.32 30 17 30 C17 29.34 17 28.68 17 28 C16.34 28 15.68 28 15 28 Z M-9 37 C-9.73343428 40.06556598 -9.73343428 40.06556598 -10 43 C-7.36 43 -4.72 43 -2 43 C-2.56739868 38.87026372 -2.56739868 38.87026372 -4 35 C-6.32357511 34.81509993 -6.32357511 34.81509993 -9 37 Z M0 39 C0.33 40.32 0.66 41.64 1 43 C6.61 43 12.22 43 18 43 C18 41.68 18 40.36 18 39 C12.06 39 6.12 39 0 39 Z " fill="#BEEBF6" transform="translate(62,41)"/>
<path d="M0 0 C12.87 0 25.74 0 39 0 C43.8125 9.1875 43.8125 9.1875 45.31176758 12.05541992 C45.71032959 12.81443604 46.1088916 13.57345215 46.51953125 14.35546875 C46.94572754 15.16806152 47.37192383 15.9806543 47.81103516 16.81787109 C48.76194908 18.56310079 49.80960977 20.25548181 50.88671875 21.92578125 C51.43779297 22.95251953 51.43779297 22.95251953 52 24 C51.505 25.485 51.505 25.485 51 27 C46.18250674 19.08033305 41.60176043 11.05308075 37 3 C25.45 3 13.9 3 2 3 C-1.06329966 8.54655569 -1.06329966 8.54655569 -4.125 14.09399414 C-6.93438094 19.15911043 -9.84916309 24.11931088 -13.0390625 28.95703125 C-14.26053151 31.55389422 -14.24697639 33.1385873 -14 36 C-12.86239413 38.6586154 -12.86239413 38.6586154 -11.2265625 41.30859375 C-10.6490625 42.30310547 -10.0715625 43.29761719 -9.4765625 44.32226562 C-8.86554687 45.35029297 -8.25453125 46.37832031 -7.625 47.4375 C-6.42481118 49.47500004 -5.22933835 51.51528687 -4.0390625 53.55859375 C-3.50490723 54.45892334 -2.97075195 55.35925293 -2.42041016 56.28686523 C-0.93273047 59.12849196 0.06687263 61.9359787 1 65 C2.485 64.505 2.485 64.505 4 64 C5.91765594 63.85060226 7.83946522 63.75189717 9.76171875 63.68359375 C10.87998047 63.64169922 11.99824219 63.59980469 13.15039062 63.55664062 C14.31763672 63.51732422 15.48488281 63.47800781 16.6875 63.4375 C17.86634766 63.39431641 19.04519531 63.35113281 20.25976562 63.30664062 C23.17305883 63.20048824 26.08643757 63.09843758 29 63 C29 62.01 29 61.02 29 60 C30.98 59.505 30.98 59.505 33 59 C33.495 54.05 33.495 54.05 34 49 C34.99 49.495 34.99 49.495 36 50 C36 54.66666667 36 59.33333333 36 64 C37.65 64.66 39.3 65.32 41 66 C40.01 66.99 39.02 67.98 38 69 C37.67 68.67 37.34 68.34 37 68 C34.42900146 68.00076285 31.87722331 68.05897546 29.30859375 68.140625 C26.86680092 68.1721424 24.42507141 68.19204736 21.9831543 68.21142578 C20.29811629 68.23695911 18.61325473 68.2838588 16.92944336 68.35302734 C5.79167462 68.7853277 5.79167462 68.7853277 1 67 C-2.91344938 63.194846 -4.79498066 58.9347616 -7 54 C-8.11912 52.28123423 -9.27279899 50.58418799 -10.46875 48.91796875 C-18.20349887 37.19629849 -18.20349887 37.19629849 -17.86181641 31.82958984 C-16.57908875 27.41882557 -14.08384578 23.80696513 -11.43603516 20.10058594 C-9.37612695 17.08741861 -7.68092393 13.90501559 -5.95581055 10.69189453 C-4.0151353 7.1034516 -2.00007017 3.5556803 0 0 Z " fill="#D7F7FC" transform="translate(48,26)"/>
<path d="M0 0 C4.29 0 8.58 0 13 0 C13.33 1.65 13.66 3.3 14 5 C12.68 5.33 11.36 5.66 10 6 C10 13.59 10 21.18 10 29 C12.475 29.99 12.475 29.99 15 31 C14.505 33.475 14.505 33.475 14 36 C9.38 36 4.76 36 0 36 C0 34.02 0 32.04 0 30 C1.32 30 2.64 30 4 30 C3.67 22.08 3.34 14.16 3 6 C2.01 6 1.02 6 0 6 C-1.125 2.25 -1.125 2.25 0 0 Z " fill="#F0F8FC" transform="translate(164,57)"/>
<path d="M0 0 C0.9075 -0.020625 1.815 -0.04125 2.75 -0.0625 C7.7124033 -0.0915199 11.26806406 -0.07627581 15.25 3.25 C17.76855199 7.37126689 17.33846982 10.64493538 16.25 15.25 C15.693125 15.930625 15.13625 16.61125 14.5625 17.3125 C14.129375 17.951875 13.69625 18.59125 13.25 19.25 C14.20931238 23.83338137 16.47159801 28.06131252 18.4453125 32.296875 C19.25 34.25 19.25 34.25 19.25 36.25 C16.9296875 36.15234375 16.9296875 36.15234375 14.25 35.25 C12.6953125 32.37890625 12.6953125 32.37890625 11.375 28.8125 C9.64298876 24.25163406 9.64298876 24.25163406 6.3125 20.9453125 C4.2035025 20.32520745 4.2035025 20.32520745 1.25 20.25 C1.25 19.59 1.25 18.93 1.25 18.25 C0.59 18.25 -0.07 18.25 -0.75 18.25 C-2.25156874 15.24686252 -1.84281204 12.45932478 -1.8125 9.125 C-1.80347656 7.84367187 -1.79445312 6.56234375 -1.78515625 5.2421875 C-1.77355469 4.25476562 -1.76195312 3.26734375 -1.75 2.25 C-4.06 2.25 -6.37 2.25 -8.75 2.25 C-8.75 4.23 -8.75 6.21 -8.75 8.25 C-7.43 8.58 -6.11 8.91 -4.75 9.25 C-6.07 9.25 -7.39 9.25 -8.75 9.25 C-9.08 10.24 -9.41 11.23 -9.75 12.25 C-10.92661508 8.57307787 -10.89475933 5.0861222 -10.75 1.25 C-8.46239144 -1.03760856 -3.06971679 0.01714926 0 0 Z M1.25 4.25 C1.25 8.54 1.25 12.83 1.25 17.25 C6.42446776 17.65914759 6.42446776 17.65914759 11.25 16.25 C12.93477849 12.88044301 12.54650704 9.9859887 12.25 6.25 C10.46342243 4.03629949 10.46342243 4.03629949 8.0859375 4.0546875 C4.66796875 4.15234375 4.66796875 4.15234375 1.25 4.25 Z " fill="#F3FCFE" transform="translate(134.75,56.75)"/>
<path d="M0 0 C0.268125 0.804375 0.53625 1.60875 0.8125 2.4375 C1.204375 3.283125 1.59625 4.12875 2 5 C2.99 5.33 3.98 5.66 5 6 C6.35439668 8.70879335 6.06501451 11.00933268 6 14 C5.34 14 4.68 14 4 14 C3.67 14.99 3.34 15.98 3 17 C2.505 17.45375 2.01 17.9075 1.5 18.375 C-0.43309736 20.46918881 -0.62452796 22.22150692 -1 25 C-2.32 24.67 -3.64 24.34 -5 24 C-4.67 23.01 -4.34 22.02 -4 21 C-6.8424854 19.42726432 -6.8424854 19.42726432 -10 19 C-9.7525 17.2984375 -9.7525 17.2984375 -9.5 15.5625 C-8.98013942 11.62139482 -9.0230781 7.84568147 -9.2578125 3.8828125 C-9.17273438 3.26148437 -9.08765625 2.64015625 -9 2 C-5.5647952 -0.29013653 -4.014669 -0.17842973 0 0 Z " fill="#CDF1F6" transform="translate(92,72)"/>
<path d="M0 0 C2.38003355 1.26935122 2.91747992 2.52640646 3.875 5 C3.215 5 2.555 5 1.875 5 C2.5246875 5.91523437 3.174375 6.83046875 3.84375 7.7734375 C4.68774508 8.97378605 5.53148173 10.17431634 6.375 11.375 C6.80425781 11.97828125 7.23351562 12.5815625 7.67578125 13.203125 C10.875 17.7734375 10.875 17.7734375 10.875 20 C11.865 19.67 12.855 19.34 13.875 19 C14.205 20.32 14.535 21.64 14.875 23 C12.895 23.99 10.915 24.98 8.875 26 C3.5526357 18.85282508 -1.43487623 11.57748121 -6.125 4 C-2.390625 0 -2.390625 0 0 0 Z " fill="#22ADE7" transform="translate(64.125,44)"/>
<path d="M0 0 C1.0625 1.875 1.0625 1.875 2 4 C1.67 4.66 1.34 5.32 1 6 C2.32 6.66 3.64 7.32 5 8 C5 8.99 5 9.98 5 11 C4.0925 10.195625 3.185 9.39125 2.25 8.5625 C-0.10309908 6.58857329 -1.86938046 5.36122533 -5 5 C-4.67 6.32 -4.34 7.64 -4 9 C-4.99 8.67 -5.98 8.34 -7 8 C-5.90141139 12.98590216 -4.79636398 16.67834658 -2 21 C-2 21.66 -2 22.32 -2 23 C-1.34 23 -0.68 23 0 23 C0.934088 26.56651782 1.11439717 28.63535903 0 32.1875 C-2.64095906 35.90134868 -4.73880829 36.55280282 -9 38 C-9 35 -9 35 -7.125 32.8125 C-5 31 -5 31 -3 31 C-3.98615311 26.15888473 -5.28988126 22.24094438 -7.625 17.875 C-11.00253837 11.31091501 -11.00253837 11.31091501 -10 7 C-7.8125 4.125 -7.8125 4.125 -5 2 C-2.1875 1.6875 -2.1875 1.6875 0 2 C0 1.34 0 0.68 0 0 Z " fill="#DEF8FB" transform="translate(101,55)"/>
<path d="M0 0 C1.98 0 3.96 0 6 0 C6 10.23 6 20.46 6 31 C4.02 31 2.04 31 0 31 C0 29.68 0 28.36 0 27 C1.32 27 2.64 27 4 27 C4 26.34 4 25.68 4 25 C2.68 25 1.36 25 0 25 C0 24.01 0 23.02 0 22 C0.99 21.67 1.98 21.34 3 21 C2.01 20.67 1.02 20.34 0 20 C0 19.01 0 18.02 0 17 C1.32 17 2.64 17 4 17 C4 16.34 4 15.68 4 15 C2.68 15 1.36 15 0 15 C0.185625 14.443125 0.37125 13.88625 0.5625 13.3125 C1.08232122 10.56487353 0.58377522 8.72428435 0 6 C-0.03772913 4.0003559 -0.04649906 1.99945939 0 0 Z " fill="#6F9EAD" transform="translate(126,59)"/>
<path d="M0 0 C2.64 0 5.28 0 8 0 C8.66 1.32 9.32 2.64 10 4 C8.68 4.33 7.36 4.66 6 5 C6 12.59 6 20.18 6 28 C4.68 28.33 3.36 28.66 2 29 C1 28 1 28 0.90234375 25.53149414 C0.91394531 24.46020264 0.92554688 23.38891113 0.9375 22.28515625 C0.94523438 21.12435547 0.95296875 19.96355469 0.9609375 18.76757812 C0.98693799 16.30143186 1.01297952 13.83528602 1.0390625 11.36914062 C1.04679688 10.20705078 1.05453125 9.04496094 1.0625 7.84765625 C1.07410156 6.77523682 1.08570313 5.70281738 1.09765625 4.59790039 C1.17977357 2.01513067 1.17977357 2.01513067 0 0 Z " fill="#FAFCFE" transform="translate(168,58)"/>
<path d="M0 0 C1.42376318 2.84752635 0.51354329 4.91874027 0 8 C0.495 8.99 0.495 8.99 1 10 C-13.85 9.505 -13.85 9.505 -29 9 C-29 10.65 -29 12.3 -29 14 C-29.99 14 -30.98 14 -32 14 C-32.33 12.68 -32.66 11.36 -33 10 C-32.67 10 -32.34 10 -32 10 C-31.67 8.35 -31.34 6.7 -31 5 C-30.34 5 -29.68 5 -29 5 C-29 5.66 -29 6.32 -29 7 C-27.72125 6.814375 -26.4425 6.62875 -25.125 6.4375 C-17.09283171 5.60178307 -9.02971589 6.43144713 -1 7 C-1 5.68 -1 4.36 -1 3 C-5.29 3 -9.58 3 -14 3 C-14 2.67 -14 2.34 -14 2 C-7.07 1.01 -7.07 1.01 0 0 Z " fill="#C2E4F0" transform="translate(81,77)"/>
<path d="M0 0 C2.69754252 1.45813109 4.67984231 2.55978318 6.5 5.0625 C8.38853365 7.50185597 10.11272126 8.03757375 13 9 C13.66 9.33 14.32 9.66 15 10 C15 10.66 15 11.32 15 12 C13.35 12 11.7 12 10 12 C10.3403125 13.8253125 10.3403125 13.8253125 10.6875 15.6875 C11.07043138 18.7783033 11.04046858 19.90202344 9.8125 22.875 C7.97605244 25.02807645 6.624338 26.00456145 4 27 C3.67 26.34 3.34 25.68 3 25 C4.32 24.34 5.64 23.68 7 23 C8.01190527 15.62754735 5.15216331 10.95072376 1.53125 4.7578125 C0 2 0 2 0 0 Z " fill="#DCF5FB" transform="translate(101,50)"/>
<path d="M0 0 C0.33 1.32 0.66 2.64 1 4 C2.65 4.33 4.3 4.66 6 5 C4.68 5.33 3.36 5.66 2 6 C2 6.99 2 7.98 2 9 C3.32 9 4.64 9 6 9 C6 9.66 6 10.32 6 11 C4.68 11 3.36 11 2 11 C2 11.99 2 12.98 2 14 C3.32 14.33 4.64 14.66 6 15 C4.68 15.33 3.36 15.66 2 16 C2 16.99 2 17.98 2 19 C3.32 19 4.64 19 6 19 C6 19.66 6 20.32 6 21 C4.68 21 3.36 21 2 21 C2 22.32 2 23.64 2 25 C3.98 25 5.96 25 8 25 C5 27 5 27 0 26 C0 17.42 0 8.84 0 0 Z " fill="#C9EDF6" transform="translate(124,65)"/>
<path d="M0 0 C4.29 0 8.58 0 13 0 C13 0.99 13 1.98 13 3 C11.35 2.67 9.7 2.34 8 2 C7.67 2.99 7.34 3.98 7 5 C6.34 5 5.68 5 5 5 C5 13.58 5 22.16 5 31 C3.68 31 2.36 31 1 31 C0.67 32.32 0.34 33.64 0 35 C0 33.35 0 31.7 0 30 C1.32 30 2.64 30 4 30 C3.67 22.08 3.34 14.16 3 6 C2.01 6 1.02 6 0 6 C-1.125 2.25 -1.125 2.25 0 0 Z " fill="#E6EFF6" transform="translate(164,57)"/>
<path d="M0 0 C4.39970265 4.0114936 8.42485876 8.58833101 11 14 C10.6640625 16.27734375 10.6640625 16.27734375 10 18 C9.34 18 8.68 18 8 18 C6.0546875 15.515625 6.0546875 15.515625 3.875 12.25 C3.15054688 11.18265625 2.42609375 10.1153125 1.6796875 9.015625 C-0.16509335 5.70359985 0 3.70449478 0 0 Z " fill="#85D8E7" transform="translate(67,46)"/>
<path d="M0 0 C4.20240011 3.71750779 6.99782679 8.31660979 10 13 C11.98 12.34 13.96 11.68 16 11 C15.67 9.35 15.34 7.7 15 6 C17.7972908 8.06756277 18.02692273 9.14440371 18.6875 12.6875 C18.790625 13.780625 18.89375 14.87375 19 16 C16.9375 17.3125 16.9375 17.3125 14 18 C7.56082942 14.66117081 3.50509123 9.28572591 0 3 C0 2.01 0 1.02 0 0 Z M14 13 C14 13.66 14 14.32 14 15 C14.66 15 15.32 15 16 15 C16 14.34 16 13.68 16 13 C15.34 13 14.68 13 14 13 Z " fill="#AFEFFA" transform="translate(63,56)"/>
<path d="M0 0 C5.08938811 1.59043379 8.87456643 4.7446951 13 8 C12.67 8.66 12.34 9.32 12 10 C8.00544473 9.38545304 5.25533664 7.29353263 2 5 C3.65 6.98 5.3 8.96 7 11 C6.01 12.485 6.01 12.485 5 14 C-0.74031891 5.92255125 -0.74031891 5.92255125 0 0 Z " fill="#7EA6B1" transform="translate(94,63)"/>
<path d="M0 0 C0.99 0.33 1.98 0.66 3 1 C3.934088 4.56651782 4.11439717 6.63535903 3 10.1875 C0.35904094 13.90134868 -1.73880829 14.55280282 -6 16 C-6 13 -6 13 -4.125 10.8125 C-2 9 -2 9 0 9 C0 6.03 0 3.06 0 0 Z " fill="#EDFBFE" transform="translate(98,77)"/>
<path d="M0 0 C4.03625076 1.34541692 4.85447953 3.85947465 6.6875 7.4375 C7.00783203 8.03626953 7.32816406 8.63503906 7.65820312 9.25195312 C10 13.71085421 10 13.71085421 10 16 C7.08482708 14.92598892 5.22189824 14.22189824 3 12 C2.835 11.154375 2.67 10.30875 2.5 9.4375 C2.335 8.633125 2.17 7.82875 2 7 C1.34 6.67 0.68 6.34 0 6 C0.33 5.34 0.66 4.68 1 4 C0.60061233 1.90178785 0.60061233 1.90178785 0 0 Z " fill="#6CA7B8" transform="translate(86,33)"/>
<path d="M0 0 C3.62351253 1.20783751 4.15215236 2.29653142 6.1875 5.4375 C6.71730469 6.24058594 7.24710938 7.04367188 7.79296875 7.87109375 C9 10 9 10 9 12 C7.68 11.67 6.36 11.34 5 11 C5 10.34 5 9.68 5 9 C4.34 9 3.68 9 3 9 C0.8125 6.75 0.8125 6.75 -1 4 C-0.75 1.6875 -0.75 1.6875 0 0 Z " fill="#0CADEA" transform="translate(62,46)"/>
<path d="M0 0 C2.71224618 1.61268692 5.37352812 3.24901874 8 5 C8.66 4.34 9.32 3.68 10 3 C10.33 5.31 10.66 7.62 11 10 C6.32894208 8.44298069 2.91294315 5.91552627 -1 3 C-0.67 2.01 -0.34 1.02 0 0 Z " fill="#7AA5B1" transform="translate(87,75)"/>
<path d="M0 0 C2.38003355 1.26935122 2.91747992 2.52640646 3.875 5 C2.885 5 1.895 5 0.875 5 C0.545 4.34 0.215 3.68 -0.125 3 C-0.785 3 -1.445 3 -2.125 3 C-1.55155063 5.86724686 -1.2635485 6.8614515 0.875 9 C0.545 10.32 0.215 11.64 -0.125 13 C-2.105 10.03 -4.085 7.06 -6.125 4 C-2.73106061 0 -2.73106061 0 0 0 Z " fill="#37A5D3" transform="translate(64.125,44)"/>
<path d="M0 0 C4.40114397 0.50298788 6.71195019 2.08772731 10 5 C10.66 4.67 11.32 4.34 12 4 C12 5.98 12 7.96 12 10 C8 7.33333333 4 4.66666667 0 2 C0 1.34 0 0.68 0 0 Z " fill="#70A1AC" transform="translate(96,60)"/>
<path d="M0 0 C3.03852705 1.40976705 5.5939595 3.08870228 8.25 5.125 C8.95640625 5.66382812 9.6628125 6.20265625 10.390625 6.7578125 C10.92171875 7.16773437 11.4528125 7.57765625 12 8 C11.34 8.66 10.68 9.32 10 10 C7.36 8.02 4.72 6.04 2 4 C1.34 4.66 0.68 5.32 0 6 C0 4.02 0 2.04 0 0 Z " fill="#74A5AF" transform="translate(84,79)"/>
<path d="M0 0 C1.134375 0.020625 2.26875 0.04125 3.4375 0.0625 C3.4375 0.7225 3.4375 1.3825 3.4375 2.0625 C1.4575 2.0625 -0.5225 2.0625 -2.5625 2.0625 C-2.5625 4.0425 -2.5625 6.0225 -2.5625 8.0625 C-1.2425 8.3925 0.0775 8.7225 1.4375 9.0625 C0.1175 9.0625 -1.2025 9.0625 -2.5625 9.0625 C-2.8925 10.0525 -3.2225 11.0425 -3.5625 12.0625 C-4.73911508 8.38557787 -4.70725933 4.8986222 -4.5625 1.0625 C-3.5625 0.0625 -3.5625 0.0625 0 0 Z " fill="#DCF8FE" transform="translate(128.5625,56.9375)"/>
<path d="M0 0 C2.475 0.99 2.475 0.99 5 2 C5 3.66666667 5 5.33333333 5 7 C2.69 6.67 0.38 6.34 -2 6 C-1.33333333 4 -0.66666667 2 0 0 Z " fill="#ABCED4" transform="translate(84,85)"/>
<path d="M0 0 C2.94751667 2.74423966 5.22773678 5.36219655 7 9 C6.67 9.99 6.34 10.98 6 12 C2.71708314 9.88198913 1.87015539 8.72923739 1 5 C0.01 4.67 -0.98 4.34 -2 4 C-1.34 4 -0.68 4 0 4 C-0.33 3.01 -0.66 2.02 -1 1 C-0.67 0.67 -0.34 0.34 0 0 Z " fill="#A3C5CD" transform="translate(100,52)"/>
<path d="M0 0 C0.66 0.33 1.32 0.66 2 1 C2 1.99 2 2.98 2 4 C0.02 4.99 -1.96 5.98 -4 7 C-5.32 5.02 -6.64 3.04 -8 1 C-5.69 1.66 -3.38 2.32 -1 3 C-0.67 2.01 -0.34 1.02 0 0 Z " fill="#35A6D2" transform="translate(77,63)"/>
<path d="M0 0 C2.50037734 2.17424117 3.43628586 3.73045798 4 7 C2.03533587 8.06775224 0.03144641 9.06553465 -2 10 C-2.66 9.67 -3.32 9.34 -4 9 C-4 8.34 -4 7.68 -4 7 C-2.68 6.34 -1.36 5.68 0 5 C0 3.35 0 1.7 0 0 Z " fill="#75A6B7" transform="translate(96,49)"/>
<path d="M0 0 C-0.99 0.99 -1.98 1.98 -3 3 C-3.33 2.67 -3.66 2.34 -4 2 C-5.51165654 1.60851239 -7.03469632 1.26027543 -8.5625 0.9375 C-9.38878906 0.76089844 -10.21507813 0.58429688 -11.06640625 0.40234375 C-11.70449219 0.26957031 -12.34257813 0.13679688 -13 0 C-13 -0.33 -13 -0.66 -13 -1 C-4.57142857 -2.42857143 -4.57142857 -2.42857143 0 0 Z " fill="#E3FAFE" transform="translate(89,92)"/>
<path d="M0 0 C1.1875 1.6875 1.1875 1.6875 2 4 C0.6875 6.5625 0.6875 6.5625 -1 9 C-1.33 9.99 -1.66 10.98 -2 12 C-2.66 12 -3.32 12 -4 12 C-4.61528766 6.92387682 -2.61658349 4.17017994 0 0 Z " fill="#71A8B5" transform="translate(37,50)"/>
<path d="M0 0 C4.455 2.97 4.455 2.97 9 6 C8.34 6.66 7.68 7.32 7 8 C5 8 5 8 2.375 5.6875 C0 3 0 3 0 0 Z " fill="#C3EBF0" transform="translate(85,82)"/>
<path d="M0 0 C1.32 0.33 2.64 0.66 4 1 C4.33 2.32 4.66 3.64 5 5 C0.25 4.25 0.25 4.25 -2 2 C-1.34 2 -0.68 2 0 2 C0 1.34 0 0.68 0 0 Z " fill="#07ACEF" transform="translate(71,61)"/>
<path d="M0 0 C0.33 0 0.66 0 1 0 C1 1.65 1 3.3 1 5 C1.33 3.68 1.66 2.36 2 1 C2.99 1 3.98 1 5 1 C5 2.65 5 4.3 5 6 C3.35 6 1.7 6 0 6 C0 4.02 0 2.04 0 0 Z " fill="#82B6C5" transform="translate(126,59)"/>
<path d="M0 0 C1.32 1.32 2.64 2.64 4 4 C3.67 4.66 3.34 5.32 3 6 C2.01 5.67 1.02 5.34 0 5 C-2.14255793 5.38932856 -2.14255793 5.38932856 -4 6 C-2.84826645 3.53199953 -1.95216435 1.95216435 0 0 Z " fill="#68A5B9" transform="translate(62,57)"/>
<path d="M0 0 C4.75 1.875 4.75 1.875 7 3 C7 3.66 7 4.32 7 5 C5.35 5 3.7 5 2 5 C1.34 3.35 0.68 1.7 0 0 Z " fill="#E6F9FD" transform="translate(109,57)"/>
<path d="M0 0 C5 7.5 5 7.5 5 10 C2.525 9.01 2.525 9.01 0 8 C0.33 7.34 0.66 6.68 1 6 C0.10636395 3.39068734 0.10636395 3.39068734 -1 1 C-0.67 0.67 -0.34 0.34 0 0 Z " fill="#8AAAB4" transform="translate(91,68)"/>
<path d="M0 0 C0 2.31 0 4.62 0 7 C-0.33 6.34 -0.66 5.68 -1 5 C-2.32 5.33 -3.64 5.66 -5 6 C-5 4.68 -5 3.36 -5 2 C-1.125 0 -1.125 0 0 0 Z " fill="#6BA8B4" transform="translate(91,62)"/>
<path d="M0 0 C0.99 0 1.98 0 3 0 C3.33 1.65 3.66 3.3 4 5 C2.35 4.67 0.7 4.34 -1 4 C-1 1 -1 1 0 0 Z " fill="#72ADC3" transform="translate(87,67)"/>
<path d="M0 0 C1.65 0 3.3 0 5 0 C5 1.32 5 2.64 5 4 C3.35 3.67 1.7 3.34 0 3 C0 2.01 0 1.02 0 0 Z " fill="#7CA9BC" transform="translate(126,66)"/>
<path d="M0 0 C0.99 0.99 1.98 1.98 3 3 C2.01 3.99 1.02 4.98 0 6 C-0.99 5.67 -1.98 5.34 -3 5 C-2.625 3.0625 -2.625 3.0625 -2 1 C-1.34 0.67 -0.68 0.34 0 0 Z " fill="#6AA7B9" transform="translate(55,47)"/>
<path d="M0 0 C0.99 0.33 1.98 0.66 3 1 C3.33 1.99 3.66 2.98 4 4 C3.01 4.66 2.02 5.32 1 6 C0.34 5.34 -0.32 4.68 -1 4 C-0.625 1.875 -0.625 1.875 0 0 Z " fill="#04B3F5" transform="translate(62,46)"/>
<path d="M0 0 C0.99 0.33 1.98 0.66 3 1 C2.67 1.99 2.34 2.98 2 4 C1.34 4 0.68 4 0 4 C-0.33 4.99 -0.66 5.98 -1 7 C-1.66 7 -2.32 7 -3 7 C-1.125 1.125 -1.125 1.125 0 0 Z " fill="#68A6B4" transform="translate(42,42)"/>
<path d="M0 0 C2.475 0.99 2.475 0.99 5 2 C5 3.65 5 5.3 5 7 C4.34 7 3.68 7 3 7 C0 2.61538462 0 2.61538462 0 0 Z " fill="#65ABBD" transform="translate(77,58)"/>
<path d="M0 0 C1.65 0.99 3.3 1.98 5 3 C4.67 4.32 4.34 5.64 4 7 C1.49962266 4.82575883 0.56371414 3.26954202 0 0 Z " fill="#E5FCFD" transform="translate(101,50)"/>
<path d="M0 0 C2.91227269 3.28804981 4.49701212 5.59885603 5 10 C1.32769295 6.92000054 0.43197635 4.7517398 0 0 Z " fill="#31A8E0" transform="translate(60,47)"/>
<path d="M0 0 C2 2 2 2 2.125 4.625 C2.08375 5.40875 2.0425 6.1925 2 7 C1.01 7 0.02 7 -1 7 C-1.625 5.1875 -1.625 5.1875 -2 3 C-1.34 2.01 -0.68 1.02 0 0 Z " fill="#C8EDF4" transform="translate(50,84)"/>
<path d="M0 0 C2.475 0.495 2.475 0.495 5 1 C5 2.32 5 3.64 5 5 C2.5 3.625 2.5 3.625 0 2 C0 1.34 0 0.68 0 0 Z " fill="#84ACB6" transform="translate(96,60)"/>
</svg>
