<?xml version="1.0" encoding="UTF-8"?>
<svg version="1.1" xmlns="http://www.w3.org/2000/svg" width="1350" height="1350">
<path d="M0 0 C445.5 0 891 0 1350 0 C1350 445.5 1350 891 1350 1350 C904.5 1350 459 1350 0 1350 C0 904.5 0 459 0 0 Z " fill="#002B55" transform="translate(0,0)"/>
<path d="M0 0 C1.20715164 0.00323273 1.20715164 0.00323273 2.43869019 0.00653076 C42.98329524 0.18004476 79.37929022 11.61996007 108.8125 40.3125 C136.29281186 68.54828435 151.30772329 106.02891981 150.96484375 145.1171875 C150.25794859 183.24278917 135.15061486 217.00579817 108.8125 244.3125 C107.55373047 245.68341797 107.55373047 245.68341797 106.26953125 247.08203125 C93.41328631 260.6773644 76.91957681 270.87675984 59.8125 278.3125 C59.1525 278.3125 58.4925 278.3125 57.8125 278.3125 C57.56839325 283.48290169 58.19921414 287.13517303 60.14453125 291.91796875 C60.40387451 292.56617584 60.66321777 293.21438293 60.93041992 293.88223267 C61.81766304 296.09273937 62.72161238 298.29604698 63.625 300.5 C64.27500138 302.11169168 64.92362891 303.72393796 65.57104492 305.33666992 C66.67064079 308.07404161 67.77172874 310.81076691 68.87715149 313.54579163 C72.4446632 322.37272295 75.96089251 331.21955859 79.46875 340.0703125 C79.76084539 340.80716845 80.05294079 341.54402439 80.35388756 342.3032093 C81.54824797 345.31620237 82.74250372 348.32923688 83.93654919 351.34235477 C86.82975073 358.64296845 89.7267631 365.94206493 92.62611961 373.24023628 C93.44945404 375.31295586 94.27237609 377.38583886 95.09529114 379.45872498 C97.65879392 385.9132745 100.23176288 392.3637593 102.82568359 398.80615234 C103.29149338 399.96434982 103.75730316 401.1225473 104.23722839 402.31584167 C105.1026723 404.46547036 105.97029749 406.61422269 106.8405304 408.76191711 C107.22017441 409.70504257 107.59981842 410.64816803 107.9909668 411.61987305 C108.3207402 412.43505905 108.65051361 413.25024506 108.99028015 414.09013367 C112.29317365 423.01747752 112.15084684 435.00044113 108.90625 443.953125 C103.25177416 456.15063717 95.00686078 465.06632905 82.55078125 470.33984375 C70.28863456 474.69544222 53.26347557 476.22691075 41.09765625 470.6484375 C28.67785526 463.38763077 19.20400344 454.47835965 14.2890625 440.78515625 C13.98643494 439.97702484 13.68380737 439.16889343 13.37200928 438.33627319 C12.72215648 436.59666248 12.0781922 434.85484255 11.43963623 433.11105347 C10.05672916 429.33541141 8.64444968 425.57094796 7.23440552 421.80537415 C6.50184932 419.84799731 5.77080385 417.89005445 5.04122925 415.93156433 C1.52430366 406.49761526 -2.13184277 397.12099993 -5.8125 387.75 C-7.12389458 384.40423141 -8.43350209 381.05776664 -9.7421875 377.7109375 C-10.08323517 376.83874573 -10.42428284 375.96655396 -10.77566528 375.06793213 C-16.84585674 359.5242576 -22.82855842 343.94636125 -28.82666016 328.37475586 C-29.2851535 327.18510223 -29.74364685 325.99544861 -30.21603394 324.76974487 C-31.07413433 322.5430994 -31.93169853 320.31624717 -32.78860474 318.08914185 C-34.95874025 312.45826952 -37.16976241 306.85015524 -39.47564697 301.27330017 C-40.1875 299.3125 -40.1875 299.3125 -40.1875 297.3125 C-40.82929199 297.36978271 -41.47108398 297.42706543 -42.13232422 297.48608398 C-50.47604272 297.89798153 -56.72851177 295.66603193 -64.3125 292.375 C-65.49739014 291.87355469 -66.68228027 291.37210938 -67.90307617 290.85546875 C-83.17866269 284.29794084 -96.57837725 277.19885345 -109.1875 266.3125 C-109.70070801 265.87228516 -110.21391602 265.43207031 -110.74267578 264.97851562 C-116.71105483 259.81813361 -122.24034046 254.45897094 -127.1875 248.3125 C-128.35925781 246.86230469 -128.35925781 246.86230469 -129.5546875 245.3828125 C-142.52786285 229.06919396 -152.96413491 210.59612586 -158.1875 190.3125 C-158.61482422 188.75595703 -158.61482422 188.75595703 -159.05078125 187.16796875 C-169.51902458 147.72600928 -156.2949814 104.03774261 -136.375 69.5625 C-125.19826607 50.8617696 -110.47270294 35.16797621 -92.1875 23.3125 C-91.2490625 22.68988281 -90.310625 22.06726563 -89.34375 21.42578125 C-76.49437843 13.39492402 -62.14433075 8.50936984 -47.5 4.9375 C-46.52844971 4.69894287 -45.55689941 4.46038574 -44.5559082 4.21459961 C-29.80739489 0.82879223 -15.07835184 -0.0732615 0 0 Z " fill="#6AADC4" transform="translate(799.1875,434.6875)"/>
<path d="M0 0 C0.87068115 -0.00040283 1.7413623 -0.00080566 2.63842773 -0.0012207 C32.17480981 0.07703924 60.65918933 6.98266309 86.5625 21.4375 C87.46613281 21.92734375 88.36976563 22.4171875 89.30078125 22.921875 C113.74286722 36.7996782 136.63362417 59.67775489 144.63671875 87.12109375 C147.5580301 99.27352384 146.62605596 112.46169617 140.5625 123.4375 C133.09322268 135.35498218 122.42061315 143.52260712 108.6875 146.75 C97.04829174 148.64389961 85.17152 148.18750953 74.921875 141.7890625 C70.80609455 138.66815613 67.12351087 135.17656142 63.5625 131.4375 C62.10487935 129.99927734 60.64646471 128.56185919 59.1875 127.125 C56.3888175 124.33092818 53.69691143 121.50360342 51.125 118.5 C39.49939577 105.08378546 25.20205323 92.65158997 6.69116211 91.21459961 C-13.53698438 90.48649327 -29.1915948 91.9515286 -44.75 106.125 C-53.46225832 115.33816845 -56.94830537 127.02714273 -56.68359375 139.421875 C-55.70622264 151.39854957 -49.69794719 161.32447276 -40.65234375 169.0234375 C-27.21995979 179.43539279 -11.74447557 187.44753609 3.19140625 195.4609375 C29.75779251 209.72402074 56.46387557 224.65703913 78.5625 245.4375 C79.15289062 245.9634375 79.74328125 246.489375 80.3515625 247.03125 C99.74890893 265.04963815 112.53843927 292.9042222 113.68676758 319.29321289 C114.72371582 360.89634669 103.63379214 398.7882709 74.54833984 429.54589844 C42.96460626 461.71710625 -4.59146898 477.78056791 -48.92578125 478.60546875 C-83.90562551 478.83972015 -115.96675043 474.47929102 -147.4375 458.4375 C-148.53191406 457.89480469 -149.62632812 457.35210938 -150.75390625 456.79296875 C-177.13279286 443.23847467 -200.42101681 421.3834683 -210.34375 393.03125 C-214.0955279 380.70397975 -213.97278469 367.1552719 -208.4375 355.4375 C-205.45395271 350.07528898 -202.00501966 345.55940799 -197.4375 341.4375 C-196.94894531 340.95667969 -196.46039063 340.47585938 -195.95703125 339.98046875 C-185.62283824 330.28449194 -173.92299759 328.95846884 -160.44140625 329.1640625 C-149.96664666 329.55713355 -142.53029719 334.09374646 -134.4375 340.4375 C-133.79941406 340.93378906 -133.16132813 341.43007813 -132.50390625 341.94140625 C-127.9503098 345.6633882 -124.25042078 349.98035292 -120.4375 354.4375 C-106.16240271 371.08789896 -89.02066023 385.5568561 -66.31054688 387.73779297 C-63.11707498 387.87359014 -59.94615091 387.90477184 -56.75 387.875 C-55.61949219 387.86887695 -54.48898437 387.86275391 -53.32421875 387.85644531 C-43.89120593 387.68185937 -35.3956408 386.32690033 -26.4375 383.4375 C-25.468125 383.13714844 -24.49875 382.83679688 -23.5 382.52734375 C-11.97571765 378.46925042 -2.26829496 369.24752891 3.375 358.5 C4.13395417 356.82568556 4.86429791 355.13804524 5.5625 353.4375 C5.8821875 352.68082031 6.201875 351.92414063 6.53125 351.14453125 C9.95097329 341.69279605 10.13486964 330.48692506 6.625 321.0625 C-4.81779009 297.47569035 -35.3873634 284.43193737 -57.46157837 272.84194946 C-80.52554412 260.72963784 -102.97711732 247.91043934 -122.4375 230.4375 C-123.08847656 229.85871094 -123.73945313 229.27992188 -124.41015625 228.68359375 C-136.91828421 216.88514681 -147.05864134 201.29286451 -153.4375 185.4375 C-153.97503906 184.17873047 -153.97503906 184.17873047 -154.5234375 182.89453125 C-166.22606231 152.40611397 -162.40614651 113.46383835 -149.39697266 84.08789062 C-131.97392093 47.11682992 -100.05266629 22.95063308 -62.2109375 9.0390625 C-57.16776454 7.28518936 -52.06035155 5.89089621 -46.875 4.625 C-46.08585205 4.43010986 -45.2967041 4.23521973 -44.48364258 4.03442383 C-29.83879894 0.6890951 -14.96650591 -0.00717543 0 0 Z " fill="#FEFEFE" transform="translate(421.4375,436.5625)"/>
<path d="M0 0 C8.96117876 7.65405945 14.89923015 15.53622788 17.53515625 27.09375 C17.80779297 28.07794922 17.80779297 28.07794922 18.0859375 29.08203125 C21.61152412 44.87052786 15.13756731 63.96763192 11.53027344 79.34057617 C9.7157258 87.12219393 8.13897064 94.94136707 6.59765625 102.78125 C4.72070281 112.31187576 2.74542385 121.80798443 0.59765625 131.28125 C-1.95423539 142.54494597 -4.24138764 153.84991713 -6.47567749 165.1796875 C-8.42226883 175.0396045 -10.44453981 184.86862845 -12.77954102 194.64575195 C-13.9652086 199.65999383 -14.96722392 204.6945518 -15.8984375 209.76171875 C-17.34488738 217.62254853 -19.03216822 225.41864267 -20.77734375 233.21875 C-23.13017586 243.82094063 -25.36873781 254.43718984 -27.46484375 265.09375 C-29.63806894 276.13510087 -31.97811167 287.12854025 -34.41259766 298.11425781 C-36.54592685 307.75270905 -38.55814334 317.40730408 -40.46484375 327.09375 C-42.50490209 337.45768274 -44.67984794 347.781858 -46.96484375 358.09375 C-49.309427 368.67663217 -51.5424459 379.27403285 -53.65234375 389.90625 C-54.02661499 391.77603516 -54.02661499 391.77603516 -54.40844727 393.68359375 C-55.472782 399.01561462 -56.51929496 404.34758209 -57.48046875 409.69921875 C-60.23232962 424.61416019 -65.21645971 438.25778626 -77.73828125 447.83203125 C-91.70757186 456.94145539 -107.98743842 458.2040934 -124.16015625 455.46875 C-135.09831021 452.27012534 -144.61769749 444.85422071 -150.46484375 435.09375 C-162.34807365 410.55364242 -154.16568759 385.32432474 -148.46484375 360.09375 C-148.20445312 358.93891113 -147.9440625 357.78407227 -147.67578125 356.59423828 C-146.85397313 352.97107992 -146.02668168 349.3493736 -145.18212891 345.73144531 C-143.66392997 339.17414497 -142.3882987 332.58447608 -141.15234375 325.96875 C-138.82909445 313.54330316 -136.10864236 301.21935893 -133.3190918 288.89208984 C-131.23069407 279.65061266 -129.28123069 270.39342779 -127.46484375 261.09375 C-121.28214734 229.70292744 -121.28214734 229.70292744 -118.421875 218.22265625 C-116.36136641 209.66511006 -114.83131949 200.96835011 -113.140625 192.33203125 C-110.07775026 176.73054807 -106.77396889 161.19862333 -103.26879883 145.69067383 C-101.19835993 136.51629205 -99.26907995 127.3250259 -97.46484375 118.09375 C-91.28005431 86.69452663 -91.28005431 86.69452663 -88.421875 75.22265625 C-86.29834712 66.38985845 -84.70638473 57.41553728 -83.03515625 48.48828125 C-82.55338542 45.9609375 -82.07161458 43.43359375 -81.58984375 40.90625 C-81.35910156 39.64361328 -81.12835937 38.38097656 -80.890625 37.08007812 C-77.55664342 19.83073491 -71.20934742 7.11274248 -56.46484375 -2.90625 C-39.90955889 -12.5754545 -15.25526296 -11.79804806 0 0 Z " fill="#FEFEFE" transform="translate(1122.46484375,451.90625)"/>
<path d="M0 0 C2.88213645 3.45516509 5.26424113 6.95238033 7.51171875 10.84765625 C7.83727249 11.40829773 8.16282623 11.96893921 8.49824524 12.54656982 C9.19911684 13.75386241 9.89830192 14.96213539 10.59594727 16.17129517 C12.47505815 19.42700923 14.3677049 22.6748139 16.26171875 25.921875 C16.65156952 26.59044022 17.04142029 27.25900543 17.44308472 27.9478302 C21.54083943 34.95646007 25.76487597 41.88634333 30 48.8125 C34.67545905 56.4652395 39.28765492 64.1339975 43.61791992 71.98852539 C47.04060911 78.16076132 50.67790271 84.20080059 54.3125 90.25 C54.95002197 91.32048584 55.58754395 92.39097168 56.24438477 93.49389648 C59.29682775 98.6008907 62.39682538 103.64670362 65.703125 108.59375 C66.27119873 109.46741211 66.83927246 110.34107422 67.42456055 111.24121094 C68.47683069 112.85294563 69.55711449 114.44691924 70.67114258 116.01660156 C74.34393919 121.72662799 74.21931449 125.69886285 72.86938477 132.25878906 C72.58248779 133.49338867 72.29559082 134.72798828 72 136 C71.70201476 137.41558125 71.40784149 138.83196884 71.11694336 140.24902344 C70.27923183 144.29257011 69.40297842 148.32680757 68.51696777 152.36001587 C64.50826701 170.62316508 60.76044689 188.93086853 57.18334961 207.28320312 C55.40921281 216.33534408 53.5280342 225.35499147 51.4375 234.33984375 C51.24271057 235.19479935 51.04792114 236.04975494 50.847229 236.93061829 C48.03768969 248.75239999 42.98499752 259.59935478 33 267 C18.52299012 275.63307929 2.75363904 278.76512873 -13.94140625 275.3125 C-25.59975158 272.00907275 -34.99814742 265.28199924 -41.31640625 254.8203125 C-42.295528 252.90542494 -43.17215652 250.98419628 -44 249 C-44.391875 248.154375 -44.78375 247.30875 -45.1875 246.4375 C-50.13107033 231.606789 -45.95058397 215.0900227 -42.8125 200.3125 C-42.59819336 199.2925293 -42.38388672 198.27255859 -42.16308594 197.22167969 C-40.92997433 191.36309144 -39.68243842 185.50759526 -38.43359375 179.65234375 C-38.01596288 177.69264383 -37.59833613 175.73294302 -37.18093872 173.77319336 C-36.89242548 172.41866651 -36.60374816 171.06417459 -36.31491089 169.7097168 C-33.79641814 157.88964648 -31.37054925 146.05170455 -28.96362305 134.20846558 C-25.99206338 119.588694 -22.96058361 104.99840725 -19.56933594 90.46923828 C-18.4687049 85.69574671 -17.42114378 80.91067646 -16.375 76.125 C-16.18067383 75.24545654 -15.98634766 74.36591309 -15.78613281 73.4597168 C-14.62700303 68.14080673 -13.5867592 62.80738465 -12.60546875 57.453125 C-10.94846944 48.45781295 -8.95369337 39.54546721 -6.9375 30.625 C-6.23672552 27.51336888 -5.53772572 24.40134356 -4.83984375 21.2890625 C-4.67511566 20.55600891 -4.51038757 19.82295532 -4.34066772 19.06768799 C-3.28474887 14.34568955 -2.2936097 9.61603189 -1.39672852 4.86083984 C-1 3 -1 3 0 0 Z " fill="#FEFEFE" transform="translate(621,632)"/>
<path d="M0 0 C15.30319174 11.23359296 26.33568642 26.90032384 30.125 45.6875 C30.51779615 49.84459263 30.54628098 53.95199851 30.5 58.125 C30.51160156 59.16720703 30.52320313 60.20941406 30.53515625 61.28320312 C30.49596605 71.81883397 28.32166387 81.46347084 23.4375 90.8125 C22.91422119 91.82969116 22.91422119 91.82969116 22.38037109 92.86743164 C13.13139631 110.30841486 -1.83378358 121.73956182 -20.25 128.1875 C-26.95986287 129.91092368 -33.59181964 130.06806724 -40.5 130.125 C-41.53688965 130.1353125 -42.5737793 130.145625 -43.64208984 130.15625 C-61.1099886 129.95715411 -75.98839129 123.31248268 -88.875 111.6875 C-89.57109375 111.08421875 -90.2671875 110.4809375 -90.984375 109.859375 C-104.19655758 97.67139262 -110.83206553 79.87140884 -112.12890625 62.234375 C-112.72027047 43.99746548 -106.88385515 25.65366893 -94.375 12.125 C-92.57496495 10.2731873 -90.73467549 8.48105369 -88.875 6.6875 C-88.24207031 6.02363281 -87.60914063 5.35976563 -86.95703125 4.67578125 C-64.11711265 -17.76078338 -25.33326901 -17.37662402 0 0 Z " fill="#002B55" transform="translate(831.875,525.3125)"/>
</svg>
